<mxfile host="app.diagrams.net" modified="2022-11-09T16:57:59.579Z" agent="5.0 (Windows)" etag="5TZZrlFpSzx-mS9TQ_Ft" version="20.5.1" type="github">
  <diagram id="QEYkMuUd30Ioqp30xq4b" name="Page-1">
    <mxGraphModel dx="1038" dy="556" grid="1" gridSize="10" guides="1" tooltips="1" connect="1" arrows="1" fold="1" page="1" pageScale="1" pageWidth="850" pageHeight="1100" math="0" shadow="0">
      <root>
        <mxCell id="0" />
        <mxCell id="1" parent="0" />
        <mxCell id="XUYJdjLH0sEU5uZ0VHP3-3" value="" style="edgeStyle=orthogonalEdgeStyle;rounded=0;orthogonalLoop=1;jettySize=auto;html=1;" edge="1" parent="1" source="XUYJdjLH0sEU5uZ0VHP3-1" target="XUYJdjLH0sEU5uZ0VHP3-2">
          <mxGeometry relative="1" as="geometry" />
        </mxCell>
        <mxCell id="XUYJdjLH0sEU5uZ0VHP3-1" value="start" style="ellipse;whiteSpace=wrap;html=1;aspect=fixed;" vertex="1" parent="1">
          <mxGeometry x="40" y="80" width="80" height="80" as="geometry" />
        </mxCell>
        <mxCell id="XUYJdjLH0sEU5uZ0VHP3-6" style="edgeStyle=orthogonalEdgeStyle;rounded=0;orthogonalLoop=1;jettySize=auto;html=1;entryX=1;entryY=0.5;entryDx=0;entryDy=0;" edge="1" parent="1" source="XUYJdjLH0sEU5uZ0VHP3-2" target="XUYJdjLH0sEU5uZ0VHP3-4">
          <mxGeometry relative="1" as="geometry">
            <Array as="points">
              <mxPoint x="250" y="270" />
            </Array>
          </mxGeometry>
        </mxCell>
        <mxCell id="XUYJdjLH0sEU5uZ0VHP3-9" value="No" style="edgeLabel;html=1;align=center;verticalAlign=middle;resizable=0;points=[];" vertex="1" connectable="0" parent="XUYJdjLH0sEU5uZ0VHP3-6">
          <mxGeometry x="-0.6696" y="-1" relative="1" as="geometry">
            <mxPoint as="offset" />
          </mxGeometry>
        </mxCell>
        <mxCell id="XUYJdjLH0sEU5uZ0VHP3-8" value="" style="edgeStyle=orthogonalEdgeStyle;rounded=0;orthogonalLoop=1;jettySize=auto;html=1;" edge="1" parent="1" source="XUYJdjLH0sEU5uZ0VHP3-2" target="XUYJdjLH0sEU5uZ0VHP3-7">
          <mxGeometry relative="1" as="geometry" />
        </mxCell>
        <mxCell id="XUYJdjLH0sEU5uZ0VHP3-2" value="is user Admin?" style="rhombus;whiteSpace=wrap;html=1;" vertex="1" parent="1">
          <mxGeometry x="200" y="70" width="100" height="100" as="geometry" />
        </mxCell>
        <mxCell id="XUYJdjLH0sEU5uZ0VHP3-4" value="finish" style="ellipse;whiteSpace=wrap;html=1;aspect=fixed;" vertex="1" parent="1">
          <mxGeometry x="40" y="230" width="80" height="80" as="geometry" />
        </mxCell>
        <mxCell id="XUYJdjLH0sEU5uZ0VHP3-12" value="" style="edgeStyle=orthogonalEdgeStyle;rounded=0;orthogonalLoop=1;jettySize=auto;html=1;" edge="1" parent="1" source="XUYJdjLH0sEU5uZ0VHP3-7" target="XUYJdjLH0sEU5uZ0VHP3-11">
          <mxGeometry relative="1" as="geometry" />
        </mxCell>
        <mxCell id="XUYJdjLH0sEU5uZ0VHP3-14" value="" style="edgeStyle=orthogonalEdgeStyle;rounded=0;orthogonalLoop=1;jettySize=auto;html=1;" edge="1" parent="1" source="XUYJdjLH0sEU5uZ0VHP3-7" target="XUYJdjLH0sEU5uZ0VHP3-13">
          <mxGeometry relative="1" as="geometry" />
        </mxCell>
        <mxCell id="XUYJdjLH0sEU5uZ0VHP3-7" value="View Users List" style="whiteSpace=wrap;html=1;" vertex="1" parent="1">
          <mxGeometry x="410" y="90" width="120" height="60" as="geometry" />
        </mxCell>
        <mxCell id="XUYJdjLH0sEU5uZ0VHP3-10" value="Yes" style="text;html=1;align=center;verticalAlign=middle;resizable=0;points=[];autosize=1;strokeColor=none;fillColor=none;" vertex="1" parent="1">
          <mxGeometry x="330" y="120" width="40" height="30" as="geometry" />
        </mxCell>
        <mxCell id="XUYJdjLH0sEU5uZ0VHP3-18" value="" style="edgeStyle=orthogonalEdgeStyle;rounded=0;orthogonalLoop=1;jettySize=auto;html=1;" edge="1" parent="1" source="XUYJdjLH0sEU5uZ0VHP3-11" target="XUYJdjLH0sEU5uZ0VHP3-17">
          <mxGeometry relative="1" as="geometry" />
        </mxCell>
        <mxCell id="XUYJdjLH0sEU5uZ0VHP3-11" value="View Single User Record " style="whiteSpace=wrap;html=1;" vertex="1" parent="1">
          <mxGeometry x="610" y="90" width="120" height="60" as="geometry" />
        </mxCell>
        <mxCell id="XUYJdjLH0sEU5uZ0VHP3-25" value="" style="edgeStyle=orthogonalEdgeStyle;rounded=0;orthogonalLoop=1;jettySize=auto;html=1;" edge="1" parent="1" source="XUYJdjLH0sEU5uZ0VHP3-13" target="XUYJdjLH0sEU5uZ0VHP3-24">
          <mxGeometry relative="1" as="geometry" />
        </mxCell>
        <mxCell id="XUYJdjLH0sEU5uZ0VHP3-13" value="View User Settings" style="whiteSpace=wrap;html=1;" vertex="1" parent="1">
          <mxGeometry x="410" y="230" width="120" height="60" as="geometry" />
        </mxCell>
        <mxCell id="XUYJdjLH0sEU5uZ0VHP3-20" value="" style="edgeStyle=orthogonalEdgeStyle;rounded=0;orthogonalLoop=1;jettySize=auto;html=1;" edge="1" parent="1" source="XUYJdjLH0sEU5uZ0VHP3-17" target="XUYJdjLH0sEU5uZ0VHP3-19">
          <mxGeometry relative="1" as="geometry" />
        </mxCell>
        <mxCell id="XUYJdjLH0sEU5uZ0VHP3-23" value="" style="edgeStyle=orthogonalEdgeStyle;rounded=0;orthogonalLoop=1;jettySize=auto;html=1;" edge="1" parent="1" source="XUYJdjLH0sEU5uZ0VHP3-17" target="XUYJdjLH0sEU5uZ0VHP3-22">
          <mxGeometry relative="1" as="geometry" />
        </mxCell>
        <mxCell id="XUYJdjLH0sEU5uZ0VHP3-17" value="Did User Authorise Editing" style="rhombus;whiteSpace=wrap;html=1;" vertex="1" parent="1">
          <mxGeometry x="610" y="230" width="120" height="100" as="geometry" />
        </mxCell>
        <mxCell id="XUYJdjLH0sEU5uZ0VHP3-35" value="" style="edgeStyle=orthogonalEdgeStyle;rounded=0;orthogonalLoop=1;jettySize=auto;html=1;" edge="1" parent="1" source="XUYJdjLH0sEU5uZ0VHP3-19" target="XUYJdjLH0sEU5uZ0VHP3-34">
          <mxGeometry relative="1" as="geometry" />
        </mxCell>
        <mxCell id="XUYJdjLH0sEU5uZ0VHP3-19" value="Edit User Record" style="whiteSpace=wrap;html=1;" vertex="1" parent="1">
          <mxGeometry x="610" y="430" width="120" height="60" as="geometry" />
        </mxCell>
        <mxCell id="XUYJdjLH0sEU5uZ0VHP3-21" value="Yes" style="text;html=1;align=center;verticalAlign=middle;resizable=0;points=[];autosize=1;strokeColor=none;fillColor=none;" vertex="1" parent="1">
          <mxGeometry x="670" y="370" width="40" height="30" as="geometry" />
        </mxCell>
        <mxCell id="XUYJdjLH0sEU5uZ0VHP3-22" value="finish" style="ellipse;whiteSpace=wrap;html=1;aspect=fixed;" vertex="1" parent="1">
          <mxGeometry x="830" y="240" width="80" height="80" as="geometry" />
        </mxCell>
        <mxCell id="XUYJdjLH0sEU5uZ0VHP3-30" style="edgeStyle=orthogonalEdgeStyle;rounded=0;orthogonalLoop=1;jettySize=auto;html=1;" edge="1" parent="1" source="XUYJdjLH0sEU5uZ0VHP3-24" target="XUYJdjLH0sEU5uZ0VHP3-27">
          <mxGeometry relative="1" as="geometry" />
        </mxCell>
        <mxCell id="XUYJdjLH0sEU5uZ0VHP3-24" value="Update/Save User Settings" style="whiteSpace=wrap;html=1;" vertex="1" parent="1">
          <mxGeometry x="410" y="430" width="120" height="60" as="geometry" />
        </mxCell>
        <mxCell id="XUYJdjLH0sEU5uZ0VHP3-27" value="finish" style="ellipse;whiteSpace=wrap;html=1;aspect=fixed;" vertex="1" parent="1">
          <mxGeometry x="40" y="420" width="80" height="80" as="geometry" />
        </mxCell>
        <mxCell id="XUYJdjLH0sEU5uZ0VHP3-32" value="No" style="text;html=1;align=center;verticalAlign=middle;resizable=0;points=[];autosize=1;strokeColor=none;fillColor=none;" vertex="1" parent="1">
          <mxGeometry x="730" y="245" width="40" height="30" as="geometry" />
        </mxCell>
        <mxCell id="XUYJdjLH0sEU5uZ0VHP3-34" value="finish" style="ellipse;whiteSpace=wrap;html=1;aspect=fixed;" vertex="1" parent="1">
          <mxGeometry x="830" y="420" width="80" height="80" as="geometry" />
        </mxCell>
      </root>
    </mxGraphModel>
  </diagram>
</mxfile>
